<svg class="animated" id="freepik_stories-proposal" xmlns="http://www.w3.org/2000/svg" xmlns:xlink="http://www.w3.org/1999/xlink" viewBox="0 0 500 500" version="1.1" xmlns:svgjs="http://svgjs.com/svgjs"><style>svg#freepik_stories-proposal:not(.animated) .animable {opacity: 0;}svg#freepik_stories-proposal.animated #freepik--background-simple--inject-2 {animation: 1s 1 forwards cubic-bezier(.36,-0.01,.5,1.38) zoomIn;animation-delay: 0s;}svg#freepik_stories-proposal.animated #freepik--Floor--inject-2 {animation: 1s 1 forwards cubic-bezier(.36,-0.01,.5,1.38) slideDown;animation-delay: 0s;}svg#freepik_stories-proposal.animated #freepik--Hearts--inject-2 {animation: 1s 1 forwards cubic-bezier(.36,-0.01,.5,1.38) slideUp;animation-delay: 0s;}svg#freepik_stories-proposal.animated #freepik--speech-bubble-2--inject-2 {animation: 1s 1 forwards cubic-bezier(.36,-0.01,.5,1.38) zoomOut;animation-delay: 0s;}svg#freepik_stories-proposal.animated #freepik--speech-bubble-1--inject-2 {animation: 1s 1 forwards cubic-bezier(.36,-0.01,.5,1.38) zoomOut;animation-delay: 0s;}            @keyframes zoomIn {                0% {                    opacity: 0;                    transform: scale(0.5);                }                100% {                    opacity: 1;                    transform: scale(1);                }            }                    @keyframes slideDown {                0% {                    opacity: 0;                    transform: translateY(-30px);                }                100% {                    opacity: 1;                    transform: translateY(0);                }            }                    @keyframes slideUp {                0% {                    opacity: 0;                    transform: translateY(30px);                }                100% {                    opacity: 1;                    transform: inherit;                }            }                    @keyframes zoomOut {                0% {                    opacity: 0;                    transform: scale(1.5);                }                100% {                    opacity: 1;                    transform: scale(1);                }            }        .animator-hidden { display: none; }</style><g id="freepik--background-simple--inject-2" class="animable" style="transform-origin: 250.23px 192.105px;"><path d="M413.29,135.18c-2.88-19.35-12.9-37.23-26.41-51.37-13.24-13.87-30.27-24.57-49.13-28A74.58,74.58,0,0,0,257,96.87a74.47,74.47,0,0,0-81.61-32.76c-18.59,4.69-34.87,16.52-47.15,31.23-12.54,15-21.36,33.52-22.93,53-2,24.42,3.62,50.9,16.94,71.47,14.06,21.72,36.19,38.9,58.79,51.51,38,21.2,88,47.66,88,47.66s40.42-32.38,76.92-56.06c21.71-14.09,42.65-32.7,55.23-55.31C413.06,186.21,416.88,159.42,413.29,135.18Z" style="fill: rgb(245, 245, 245); transform-origin: 259.751px 186.777px;" id="elltz8mxh44c" class="animable"></path><path d="M435.14,287.72a20.38,20.38,0,0,0-5.58-10.86,19.6,19.6,0,0,0-10.38-5.92,15.78,15.78,0,0,0-17.07,8.68,15.78,15.78,0,0,0-17.25-6.92,19.53,19.53,0,0,0-10,6.6,20.27,20.27,0,0,0-4.84,11.2,24.63,24.63,0,0,0,3.58,15.1c3,4.59,7.64,8.23,12.42,10.89,8,4.48,18.59,10.07,18.59,10.07s8.54-6.84,16.25-11.85c4.59-3,9-6.91,11.67-11.68A24.73,24.73,0,0,0,435.14,287.72Z" style="fill: rgb(235, 235, 235); transform-origin: 402.673px 298.62px;" id="elbdp7p9frsh8" class="animable"></path><path d="M457.39,219.48a7.76,7.76,0,0,0-2.14-4.17,7.47,7.47,0,0,0-4-2.28,6.18,6.18,0,0,0-4.69,1.09,6,6,0,0,0-1.86,2.25,6.06,6.06,0,0,0-6.63-2.66,7.47,7.47,0,0,0-3.83,2.54,7.77,7.77,0,0,0-1.86,4.3,9.51,9.51,0,0,0,1.38,5.8,13.36,13.36,0,0,0,4.77,4.18c3.08,1.72,7.14,3.87,7.14,3.87s3.28-2.63,6.25-4.55a13.36,13.36,0,0,0,4.48-4.49A9.42,9.42,0,0,0,457.39,219.48Z" style="fill: rgb(245, 245, 245); transform-origin: 444.924px 223.67px;" id="elqoa6d4m6c9g" class="animable"></path><path d="M155,38.2A7.76,7.76,0,0,0,152.83,34a7.47,7.47,0,0,0-4-2.28,6.18,6.18,0,0,0-4.69,1.09,6,6,0,0,0-1.86,2.25,6.06,6.06,0,0,0-6.63-2.66A7.52,7.52,0,0,0,131.83,35,7.9,7.9,0,0,0,130,39.27a9.51,9.51,0,0,0,1.38,5.8,13.45,13.45,0,0,0,4.77,4.18c3.08,1.72,7.14,3.87,7.14,3.87s3.28-2.63,6.25-4.55A13.45,13.45,0,0,0,154,44.08,9.42,9.42,0,0,0,155,38.2Z" style="fill: rgb(235, 235, 235); transform-origin: 142.538px 42.3745px;" id="elzo10ihnqmo" class="animable"></path><path d="M104.42,66.13a19.08,19.08,0,0,0-5.26-10.24,18.4,18.4,0,0,0-9.78-5.58,14.84,14.84,0,0,0-16.09,8.18A14.86,14.86,0,0,0,57,52a18.36,18.36,0,0,0-9.4,6.22,19.17,19.17,0,0,0-4.56,10.56A23.28,23.28,0,0,0,46.44,83c2.8,4.33,7.21,7.75,11.71,10.26,7.57,4.22,17.53,9.5,17.53,9.5s8-6.46,15.32-11.17c4.33-2.81,8.5-6.52,11-11A23.31,23.31,0,0,0,104.42,66.13Z" style="fill: rgb(235, 235, 235); transform-origin: 73.8263px 76.4106px;" id="elgxk5nl0hv7e" class="animable"></path><path d="M300.25,341.64a5.72,5.72,0,0,0-1.57-3.05,5.49,5.49,0,0,0-2.93-1.67,4.5,4.5,0,0,0-3.44.8,4.41,4.41,0,0,0-1.36,1.64,4.44,4.44,0,0,0-4.85-1.94,5.51,5.51,0,0,0-2.81,1.85,5.77,5.77,0,0,0-1.36,3.16,6.9,6.9,0,0,0,1,4.25,9.81,9.81,0,0,0,3.49,3.06c2.26,1.26,5.23,2.84,5.23,2.84s2.41-1.93,4.58-3.34a9.74,9.74,0,0,0,3.28-3.29A7,7,0,0,0,300.25,341.64Z" style="fill: rgb(235, 235, 235); transform-origin: 291.114px 344.716px;" id="elhsn21e33p2" class="animable"></path></g><g id="freepik--Floor--inject-2" class="animable" style="transform-origin: 251px 474.52px;"><path d="M482.77,474.52c0,.14-103.78.26-231.76.26s-231.78-.12-231.78-.26S123,474.26,251,474.26,482.77,474.38,482.77,474.52Z" style="fill: rgb(38, 50, 56); transform-origin: 251px 474.52px;" id="elvy8mbf40lis" class="animable"></path></g><g id="freepik--Hearts--inject-2" class="animable animator-hidden" style="transform-origin: 247.182px 163.081px;"><path d="M290.82,139.16a5.56,5.56,0,0,0-1.41-3,5.36,5.36,0,0,0-2.78-1.73,4.41,4.41,0,0,0-3.37.65,4.2,4.2,0,0,0-1.38,1.55,4.51,4.51,0,0,0-1.28-1.4,4.42,4.42,0,0,0-3.37-.68,5.35,5.35,0,0,0-2.79,1.7,5.51,5.51,0,0,0-1.44,3,6.69,6.69,0,0,0,.82,4.16,9.49,9.49,0,0,0,3.28,3.11c2.15,1.31,5,3,5,3s2.4-1.78,4.56-3.07a9.5,9.5,0,0,0,3.32-3.07A6.7,6.7,0,0,0,290.82,139.16Z" style="fill: rgb(186, 104, 200); transform-origin: 281.911px 141.927px;" id="eliq3s6ecmyke" class="animable"></path><path d="M358,89.13a5.53,5.53,0,0,0-1.41-3,5.31,5.31,0,0,0-2.77-1.73,4.4,4.4,0,0,0-3.38.65A4.29,4.29,0,0,0,349,86.57a4.32,4.32,0,0,0-4.65-2.08,5.35,5.35,0,0,0-2.79,1.7,5.51,5.51,0,0,0-1.44,3,6.72,6.72,0,0,0,.82,4.17,9.49,9.49,0,0,0,3.28,3.11c2.15,1.31,5,3,5,3s2.41-1.78,4.57-3.07a9.75,9.75,0,0,0,3.31-3.07A6.7,6.7,0,0,0,358,89.13Z" style="fill: rgb(186, 104, 200); transform-origin: 349.055px 91.8858px;" id="el0i0ltcbspkgs" class="animable"></path><path d="M152.87,154.43a5.56,5.56,0,0,0-1.41-3,5.36,5.36,0,0,0-2.78-1.72,4.32,4.32,0,0,0-4.76,2.19,4.48,4.48,0,0,0-1.27-1.4,4.37,4.37,0,0,0-3.37-.67,5.29,5.29,0,0,0-2.79,1.7,5.56,5.56,0,0,0-1.45,3,6.87,6.87,0,0,0,.82,4.17,9.68,9.68,0,0,0,3.29,3.1c2.14,1.31,5,2.95,5,2.95s2.41-1.78,4.57-3.07a9.5,9.5,0,0,0,3.32-3.07A6.84,6.84,0,0,0,152.87,154.43Z" style="fill: rgb(186, 104, 200); transform-origin: 143.955px 157.178px;" id="el6d4duj6c5uu" class="animable"></path><path d="M387.3,147.84a3.27,3.27,0,0,0-.84-1.8,3.15,3.15,0,0,0-1.65-1,2.58,2.58,0,0,0-2,.38,2.53,2.53,0,0,0-.83.92,2.48,2.48,0,0,0-.75-.83,2.59,2.59,0,0,0-2-.4,3.1,3.1,0,0,0-1.66,1,3.31,3.31,0,0,0-.86,1.79,4,4,0,0,0,.49,2.47,5.58,5.58,0,0,0,1.95,1.85c1.27.78,3,1.75,3,1.75s1.43-1.06,2.72-1.82a5.76,5.76,0,0,0,2-1.83A4,4,0,0,0,387.3,147.84Z" style="fill: rgb(186, 104, 200); transform-origin: 382.012px 149.475px;" id="elcbc7xpyi2ik" class="animable"></path><path d="M117.64,235.75a3.46,3.46,0,0,0-2.49-2.83,2.58,2.58,0,0,0-2,.39,2.53,2.53,0,0,0-.83.92,2.49,2.49,0,0,0-.75-.83,2.59,2.59,0,0,0-2-.4,3.1,3.1,0,0,0-1.66,1,3.21,3.21,0,0,0-.86,1.79,4,4,0,0,0,.49,2.47,5.58,5.58,0,0,0,1.95,1.85c1.27.78,3,1.75,3,1.75s1.43-1.06,2.72-1.82a5.76,5.76,0,0,0,2-1.83A4.07,4.07,0,0,0,117.64,235.75Z" style="fill: rgb(186, 104, 200); transform-origin: 112.349px 237.361px;" id="elm9jlf2i7nyl" class="animable"></path><path d="M207.06,227.8a3.38,3.38,0,0,0-.84-1.8,3.14,3.14,0,0,0-1.65-1,2.64,2.64,0,0,0-2,.38,2.78,2.78,0,0,0-.82.92,2.73,2.73,0,0,0-.76-.83,2.61,2.61,0,0,0-2-.4,3.2,3.2,0,0,0-1.66,1,3.29,3.29,0,0,0-.85,1.79,4,4,0,0,0,.48,2.48,5.73,5.73,0,0,0,2,1.84c1.28.78,3,1.76,3,1.76s1.43-1.06,2.72-1.83a5.61,5.61,0,0,0,2-1.82A4,4,0,0,0,207.06,227.8Z" style="fill: rgb(186, 104, 200); transform-origin: 201.782px 229.442px;" id="elsrkhq3p95x" class="animable"></path></g><g id="freepik--character-2--inject-2" class="animable" style="transform-origin: 338.85px 287.25px;"><path d="M340,441.84l1.21,20s-21.12,8.38-21.27,12.32l41.18-.94-.14-7.94-.36-24Z" style="fill: rgb(69, 90, 100); transform-origin: 340.53px 457.72px;" id="eltxah7mcfc8" class="animable"></path><path d="M354,459.76a1.68,1.68,0,0,1,1.2,1.9,1.6,1.6,0,0,1-1.86,1.21,1.77,1.77,0,0,1-1.27-2,1.68,1.68,0,0,1,2.08-1.05" style="fill: rgb(224, 224, 224); transform-origin: 353.635px 461.322px;" id="elfivumohq8jq" class="animable"></path><path d="M361.21,474.09l-.06-3.21L321.56,472s-1.82.84-1.58,2.13Z" style="fill: rgb(224, 224, 224); transform-origin: 340.584px 472.505px;" id="el6xjvvxo17hv" class="animable"></path><path d="M340.58,461.64c0,.2,1,.27,2,.9s1.55,1.45,1.73,1.37-.14-1.24-1.37-2S340.53,461.46,340.58,461.64Z" style="fill: rgb(38, 50, 56); transform-origin: 342.467px 462.669px;" id="el64o8nlrhzz" class="animable"></path><path d="M336.3,463.53c0,.19.84.52,1.54,1.35s.92,1.73,1.12,1.72.31-1.16-.59-2.18S336.3,463.34,336.3,463.53Z" style="fill: rgb(38, 50, 56); transform-origin: 337.699px 465.022px;" id="elbiwij8pdi8d" class="animable"></path><path d="M334,468.75c.18,0,.44-1-.1-2.06s-1.49-1.51-1.57-1.34.51.75.94,1.65S333.77,468.74,334,468.75Z" style="fill: rgb(38, 50, 56); transform-origin: 333.273px 467.033px;" id="elcc9pu5ksv7a" class="animable"></path><path d="M340.84,456.78c.08.18,1-.11,2.14-.06s2,.39,2.13.21-.77-.87-2.11-.91S340.73,456.63,340.84,456.78Z" style="fill: rgb(38, 50, 56); transform-origin: 342.977px 456.5px;" id="elwp9ru5ljegs" class="animable"></path><path d="M361,146.11c-1.91-7.32-3.83-14.69-6.85-21.63S347.82,110.86,342,106l-42,11.71c-.18,6.92-.34,14,1.83,20.56,2.11,6.37,6.35,12,7.35,18.67.7,4.69-.3,9.45-.76,14.16s-.3,9.81,2.37,13.74a5.9,5.9,0,0,0,2.65,2.32,7.7,7.7,0,0,0,4.33-.11q25.49-5.62,50.68-12.48Q364.74,160.36,361,146.11Z" style="fill: rgb(38, 50, 56); transform-origin: 334.177px 146.709px;" id="el81uksadhsv4" class="animable"></path><path d="M349.26,123.68a33.08,33.08,0,0,1-4.89,26.67q-3.8-6.15-7.57-12.32" style="fill: rgb(38, 50, 56); transform-origin: 343.508px 137.015px;" id="elan3chy1o365" class="animable"></path><path d="M308.63,104.85a20.09,20.09,0,0,1,12.8-4.51A42.64,42.64,0,0,1,335,102.72a20.76,20.76,0,0,1,7,3.32c3.68,3,7.83,8.28,9.13,12.82,1.06,3.68,1.7,13.32.88,17-.76,3.43-7,7.29-10.16,8.8L303.3,115.9A15.88,15.88,0,0,1,308.63,104.85Z" style="fill: rgb(38, 50, 56); transform-origin: 327.841px 122.5px;" id="el32l7bxvrcmp" class="animable"></path><path d="M304.42,110.83l7.05-2.94c-1.89,10.44,1.88,32.54,1.83,43.16-3.58-3.33-12.52-13.89-13.24-18.72S295.52,112,304.42,110.83Z" style="fill: rgb(38, 50, 56); transform-origin: 305.965px 129.47px;" id="elr91rjvfmgt" class="animable"></path><path d="M303.69,127.34c-1.15-7.44,1.73-17.51,9.21-18.34l17.86.55a12.86,12.86,0,0,1,12,9.46c.08.27,0-.08.08.13l6,44.62-7.1,28h0l-17.07-23.92c-.79-3.57-1.43-6.41-1.42-6.39s-9.72.5-14.35-11.3C306.55,144.28,305,135.61,303.69,127.34Z" style="fill: rgb(255, 190, 157); transform-origin: 326.143px 150.38px;" id="el937ztqhdj1r" class="animable"></path><path d="M308.81,137.28a1.62,1.62,0,0,0,1.86,1.25,1.54,1.54,0,0,0,1.31-1.77,1.6,1.6,0,0,0-1.86-1.25A1.54,1.54,0,0,0,308.81,137.28Z" style="fill: rgb(38, 50, 56); transform-origin: 310.395px 137.018px;" id="eltkb3leuu7mt" class="animable"></path><path d="M306.59,131.72c.23.17,1.23-1,2.92-1.34s3.11.2,3.25,0-.21-.44-.84-.71a4.3,4.3,0,0,0-2.65-.22,4.17,4.17,0,0,0-2.27,1.32C306.56,131.24,306.47,131.65,306.59,131.72Z" style="fill: rgb(38, 50, 56); transform-origin: 309.666px 130.536px;" id="el13sxp5thp9e" class="animable"></path><path d="M323.63,134a1.59,1.59,0,0,0,1.86,1.25,1.54,1.54,0,0,0,1.31-1.77,1.62,1.62,0,0,0-1.86-1.25A1.54,1.54,0,0,0,323.63,134Z" style="fill: rgb(38, 50, 56); transform-origin: 325.215px 133.742px;" id="elxtk463lsf0r" class="animable"></path><path d="M322.61,128.16c.24.17,1.23-1,2.92-1.34s3.11.2,3.25,0-.21-.44-.83-.71a4.34,4.34,0,0,0-2.66-.22,4.17,4.17,0,0,0-2.27,1.32C322.59,127.68,322.49,128.09,322.61,128.16Z" style="fill: rgb(38, 50, 56); transform-origin: 325.687px 126.976px;" id="elxqpz7n7h1s" class="animable"></path><path d="M320.28,142.59a11.4,11.4,0,0,0-2.85.1c-.44.05-.87.06-1-.22a2.24,2.24,0,0,1,0-1.34c.17-1.13.36-2.32.55-3.56.74-5.06,1.18-9.19,1-9.22s-1,4.06-1.72,9.12c-.17,1.24-.34,2.43-.49,3.57a2.49,2.49,0,0,0,.15,1.74,1.09,1.09,0,0,0,.84.47,2.55,2.55,0,0,0,.76-.06A11.78,11.78,0,0,0,320.28,142.59Z" style="fill: rgb(38, 50, 56); transform-origin: 317.979px 135.803px;" id="elvbgnzutr2kd" class="animable"></path><path d="M338.44,153.49s-2.11,9.28-14.6,10.83l-.64-2.87A31.49,31.49,0,0,0,338.44,153.49Z" style="fill: rgb(235, 153, 110); transform-origin: 330.82px 158.905px;" id="elvliupqa94si" class="animable"></path><path d="M321.78,122c.27.42,1.91-.17,3.94-.36s3.75,0,3.93-.48c.07-.22-.3-.59-1-.9a6.88,6.88,0,0,0-6,.64C322,121.31,321.66,121.75,321.78,122Z" style="fill: rgb(38, 50, 56); transform-origin: 325.707px 120.998px;" id="elaihojj2wum" class="animable"></path><path d="M306,126.44c.38.32,1.46-.33,2.85-.66s2.64-.31,2.82-.77c.08-.22-.19-.57-.79-.82a4.13,4.13,0,0,0-2.46-.11,4,4,0,0,0-2.11,1.27C305.89,125.85,305.82,126.28,306,126.44Z" style="fill: rgb(38, 50, 56); transform-origin: 308.795px 125.235px;" id="el5z8mq0rimfx" class="animable"></path><path d="M343.05,128.23c.05-.37,5.92-4.09,7.51,2.67,1.54,6.56-5.39,6.74-5.44,6.56S343.05,128.23,343.05,128.23Z" style="fill: rgb(255, 190, 157); transform-origin: 346.917px 132.188px;" id="elh5gd65mbt65" class="animable"></path><path d="M346.57,134.5s.13.05.34.09a1.13,1.13,0,0,0,.86-.18,2.89,2.89,0,0,0,.73-2.84,4,4,0,0,0-.71-1.57,1.35,1.35,0,0,0-1.06-.67.58.58,0,0,0-.6.47c-.05.2,0,.32,0,.34s-.17-.08-.18-.36a.74.74,0,0,1,.17-.47.87.87,0,0,1,.59-.32,1.64,1.64,0,0,1,1.43.75,3.88,3.88,0,0,1,.83,1.73c.26,1.34-.13,2.74-1,3.23a1.23,1.23,0,0,1-1.08.07C346.62,134.65,346.55,134.51,346.57,134.5Z" style="fill: rgb(235, 153, 110); transform-origin: 347.5px 131.926px;" id="elus7ptdf2b1p" class="animable"></path><path d="M346.08,122.4c-.86-.94-2.15-1.52-2.72-2.66s-.33-2.21-.61-3.3a7.35,7.35,0,0,0-1.82-2.87,32.6,32.6,0,0,0-14.41-9.7,21.35,21.35,0,0,0-11.35-.39,16.22,16.22,0,0,0-9.31,6.32c-1.27,1.86-2.62,3.79-1.33,5.64a5.5,5.5,0,0,1,4.07-4.1,10.7,10.7,0,0,1,6,.39c7.69,2.42,13.44,10.75,20.83,14.07.63,1.85,1.27,3.7,2,5.53.54,1.4,1.28,2.95,2.72,3.4,1.76.54,3.61-1,4.09-2.79a8.25,8.25,0,0,0-.19-4.15c.52-.62,1.16-1.09,2.12-2.09C347.3,124.48,347.21,123.64,346.08,122.4Z" style="fill: rgb(38, 50, 56); transform-origin: 325.491px 118.867px;" id="elskreun67ax" class="animable"></path><path d="M325.13,144.87a3.34,3.34,0,0,1-.49,5.46,2,2,0,0,1-1.23.29,2.83,2.83,0,0,1-1.68-1.41l-1.06-1.55a.83.83,0,0,1-.2-.59c.06-.22.28-.34.49-.44l4-2" style="fill: rgb(235, 153, 110); transform-origin: 323.396px 147.629px;" id="el9luwf1hb49f" class="animable"></path><path d="M323.46,150.39a3.93,3.93,0,0,0,1.87-.67,3.12,3.12,0,0,0,1.38-1.74,2.26,2.26,0,0,0,0-1.36,3.92,3.92,0,0,0-.63-1.28,3.63,3.63,0,0,0-1-.92l-.13-.08-.13.08c-2.58,1.61-4.66,2.59-4.61,2.71a17.73,17.73,0,0,0,4.87-2.28h-.26a3.15,3.15,0,0,1,.88.79,2.77,2.77,0,0,1,.62,2.21,2.84,2.84,0,0,1-1.12,1.56C324.17,150.08,323.42,150.3,323.46,150.39Z" style="fill: rgb(38, 50, 56); transform-origin: 323.512px 147.365px;" id="elwv7dek3vuu" class="animable"></path><path d="M363.76,152.92c-3.78-6.25-4.32-17.93-8.49-25.83L354.75,139,351,141.73l-5.47-2.27a63.76,63.76,0,0,0,14,42.41c3.43-.59,5.06-2.28,6.33-5.53a10.36,10.36,0,0,0-1.4-9.89q2.65,3.53,5.29,7.07C370.86,166.3,367.54,159.17,363.76,152.92Z" style="fill: rgb(38, 50, 56); transform-origin: 357.724px 154.48px;" id="elb3d8qt5cty6" class="animable"></path><path d="M322.89,270.77l2.95,28s4.17,70.8,6.23,80.55,8.36,76.91,8.36,76.91h21.41s3.2-25.27,4.49-51.06c1-19.46-2.13-31.11-2.13-38.91s9.05-57.58,9.05-57.58,5.52-18,5.81-29.52-11-21.55-11-21.55l-37,2.77Z" style="fill: rgb(38, 50, 56); transform-origin: 350.978px 356.92px;" id="eleyqyv5al7iq" class="animable"></path><path d="M346.62,155.34s15.11-.41,22.06,12.57c3.88,7.25,4.5,28.58,3.76,33.9s-4.53,29.87-4.53,29.87l-.43,12.59L379.07,269a157.1,157.1,0,0,1-21.51,2.62c-12.63.71-36.61,8-36.61,8s-2.77-20.48-2.81-28.74,1.28-32.58,1.61-33.13,7.78-47.12,7.78-47.12Z" style="fill: rgb(186, 104, 200); transform-origin: 348.605px 217.479px;" id="elru3z6tlotur" class="animable"></path><polyline points="314.32 188.22 316.07 176.43 309.09 160.75 315.66 154.34 327.83 169.53 325.7 186.03 314.88 188.22" style="fill: rgb(255, 190, 157); transform-origin: 318.46px 171.28px;" id="elbirg9om4s08" class="animable"></polyline><polygon points="314.89 188.24 314.88 188.19 325.68 186.01 327.8 169.54 315.66 154.37 309.12 160.76 316.09 176.42 316.09 176.43 314.34 188.22 314.3 188.21 316.04 176.43 309.06 160.75 309.07 160.74 315.67 154.3 315.68 154.32 327.86 169.52 327.85 169.53 325.73 186.05 325.71 186.05 314.89 188.24" style="fill: rgb(235, 153, 110); transform-origin: 318.46px 171.27px;" id="elb3nv63xpw34" class="animable"></polygon><path d="M319.86,183.32l-6.56-.66s-2.45,23.26-3.51,28.14-2,12.67,0,18.31,5.4,11.73,9.79,11.58,7.59-18.59,7.59-18.59l-5.8-37.49Z" style="fill: rgb(186, 104, 200); transform-origin: 317.893px 211.676px;" id="eldjp5kyzwm4" class="animable"></path><path d="M320,228.22a5.47,5.47,0,0,1-.1,1.27c-.11.91-.25,2.06-.42,3.43-.36,2.89-.82,6.89-1,11.33a98.48,98.48,0,0,0,.17,11.36c.12,1.45.22,2.63.31,3.44a6.28,6.28,0,0,1,.07,1.26,5.37,5.37,0,0,1-.27-1.24c-.15-.8-.31-2-.47-3.43a76.29,76.29,0,0,1-.33-11.42,102.49,102.49,0,0,1,1.16-11.35c.23-1.45.43-2.61.59-3.41A6.82,6.82,0,0,1,320,228.22Z" style="fill: rgb(38, 50, 56); transform-origin: 318.942px 244.265px;" id="el1bcsuoj2tyz" class="animable"></path><path d="M308.18,155a1,1,0,0,0-1.79.77,3.32,3.32,0,0,0,.26,1.18c.48,1.19,7.24,9.65,7.72,10.9a87.27,87.27,0,0,0,6.06,8.75l-1.13,7.79,13.76-1.71s.68-20.07-.08-22.21-2.07-8.07-2.07-8.07L329,148.2a3.54,3.54,0,0,0-2,3.79c.42,2.76.49,8.55.49,8.55l-9.36-10.92s-4-6.81-6.58-4.67h0s-2.84-1.88-3.28.52c0,0-2.05-.13-1.09,3.32a32.5,32.5,0,0,0,2.73,6.51l2.62,4.27Z" style="fill: rgb(255, 190, 157); transform-origin: 319.857px 164.32px;" id="elkyij3bvn3h" class="animable"></path><path d="M308.18,155a2.09,2.09,0,0,1,.31.28l.85.86,3.24,3.36-.16.13-1.69-2.71c-.31-.49-.63-1-1-1.55s-.61-1.13-.91-1.75a30.89,30.89,0,0,1-1.63-4,8.83,8.83,0,0,1-.5-2.36,2.31,2.31,0,0,1,.31-1.28,1.42,1.42,0,0,1,1.23-.65l-.2.15a1.92,1.92,0,0,1,.45-1,1.48,1.48,0,0,1,1.05-.41,4.29,4.29,0,0,1,2.07.72l-.24,0a2.11,2.11,0,0,1,2.2-.26,6.57,6.57,0,0,1,1.86,1.28,19.48,19.48,0,0,1,2.85,3.69l0,0,9.37,10.91-.43.16c0-2.1-.11-4.26-.27-6.44,0-.55-.09-1.09-.16-1.64a5.24,5.24,0,0,1-.05-1.73,3.8,3.8,0,0,1,2.14-2.77l.23-.11.11.24c.61,1.33,1.26,2.76,1.93,4.2v.06c.43,1.92.91,4,1.46,6,.14.52.28,1,.44,1.53a6,6,0,0,1,.34,1.6c.11,1.07.13,2.12.16,3.17,0,2.09,0,4.16,0,6.2-.05,4.07-.15,8-.28,11.81v.21l-.21,0-13.76,1.69-.29,0,0-.29c.41-2.75.79-5.34,1.15-7.79l.08.19c-1.41-1.73-2.5-3.36-3.63-4.95a43.09,43.09,0,0,1-2.88-4.62c-1.9-2.8-3.72-5.12-5.13-7.08-.7-1-1.33-1.84-1.83-2.64a3,3,0,0,1-.47-1.22,1.57,1.57,0,0,1,.1-1.08,1.08,1.08,0,0,1,1.31-.47.87.87,0,0,1,.4.3,1.52,1.52,0,0,0-.42-.24,1,1,0,0,0-1.19.47,1.45,1.45,0,0,0-.06,1,3,3,0,0,0,.48,1.15c.5.77,1.15,1.63,1.87,2.59,1.43,1.94,3.27,4.23,5.21,7A41.9,41.9,0,0,0,317,171.6c1.08,1.57,2.35,3.21,3.53,4.9l.13.13c-.35,2.45-.72,5-1.12,7.79l-.25-.25L333,182.43l-.22.24q.18-5.7.26-11.81c0-2,0-4.1,0-6.18,0-1-.05-2.09-.16-3.13a5.31,5.31,0,0,0-.32-1.49c-.16-.52-.31-1-.45-1.55-.55-2.06-1-4.12-1.46-6l0,0c-.67-1.44-1.32-2.88-1.93-4.2l.33.12a3.32,3.32,0,0,0-1.84,2.38,5,5,0,0,0,.05,1.59c.07.56.12,1.11.16,1.66.17,2.2.23,4.36.26,6.47v.69l-.44-.52L318,149.76h0v0a18.46,18.46,0,0,0-2.76-3.6,5.85,5.85,0,0,0-1.72-1.21,1.72,1.72,0,0,0-1.79.18l-.11.09-.12-.07a3.83,3.83,0,0,0-1.85-.67,1.11,1.11,0,0,0-1.13,1.06l0,.15h-.17a1.06,1.06,0,0,0-.9.48,2.18,2.18,0,0,0-.26,1.08,8.27,8.27,0,0,0,.47,2.26,31.77,31.77,0,0,0,1.58,4c.28.6.58,1.19.88,1.73l.94,1.56,1.65,2.73.53.88-.7-.76-3.17-3.43-.81-.89Z" style="fill: rgb(235, 153, 110); transform-origin: 319.889px 164.33px;" id="elxfx8zhc4qcf" class="animable"></path><path d="M316.25,161.09a10.88,10.88,0,0,1-1.64-2,41.23,41.23,0,0,1-3.23-5.36A48.93,48.93,0,0,1,309,148a12.16,12.16,0,0,1-.72-2.49c.18-.06,1.44,3.69,3.6,8a61.31,61.31,0,0,0,3.07,5.38A14.83,14.83,0,0,1,316.25,161.09Z" style="fill: rgb(235, 153, 110); transform-origin: 312.265px 153.3px;" id="elh2buesomw16" class="animable"></path><path d="M320.28,159.08a7.79,7.79,0,0,1-1.74-1.74,33.1,33.1,0,0,1-3.3-4.91c-1.13-2-2-3.9-2.71-5.25a12.13,12.13,0,0,1-1-2.23,10.8,10.8,0,0,1,1.33,2.06c.75,1.31,1.72,3.16,2.83,5.16a49.56,49.56,0,0,0,3.14,5A19.64,19.64,0,0,1,320.28,159.08Z" style="fill: rgb(235, 153, 110); transform-origin: 315.905px 152.015px;" id="ellhmc8dlkjf" class="animable"></path><g id="elr33955j094"><g style="opacity: 0.3; transform-origin: 339.58px 220.497px;" class="animable"><path d="M346,228.31c-1.67,2.84-3.67,5.74-6.7,7.06a14.17,14.17,0,0,1-7.43.63c-3.79-.5-7.84-1.81-9.9-5l-2.15-2.28a38.86,38.86,0,0,0,5.86,9.06c2.49,2.61,5.91,4.56,9.52,4.46a15.53,15.53,0,0,0,9-2.86c5.78-4.56,6.94-9.91,9.19-16.91s5.11-16.41,5.95-23.72C355.14,208.7,351.49,219,346,228.31Z" id="el2j5iwdyue4" class="animable" style="transform-origin: 339.58px 220.497px;"></path></g></g><path d="M357.73,157.8a14,14,0,0,0-16.71,7c-.74,1.63-6.72,22-6.72,22l-.25-5.45-18,2.08s.31,35.39,2.07,40.55,5.7,11.53,12.2,13.79c4,1.38,12.28-.56,15.1-4.77,6.32-9.43,12-26.78,14.05-33.45,4.15-13.67,5.13-18.49,5.13-18.49" style="fill: rgb(186, 104, 200); transform-origin: 340.325px 197.678px;" id="elklwnilk1vji" class="animable"></path><path d="M364.62,181.06s0,.17-.09.51-.18.84-.32,1.46c-.3,1.29-.78,3.18-1.43,5.6s-1.49,5.38-2.5,8.79-2.21,7.3-3.69,11.54-3.21,8.84-5.36,13.66c-1.08,2.41-2.28,4.87-3.66,7.33a35.53,35.53,0,0,1-2.29,3.64,10.88,10.88,0,0,1-3.5,2.77,18.76,18.76,0,0,1-8.89,2.09,9.21,9.21,0,0,1-2.37-.37,13.85,13.85,0,0,1-2.22-.92,17.73,17.73,0,0,1-4-2.79,24.72,24.72,0,0,1-5.6-8.13,21.8,21.8,0,0,1-.9-2.37c-.09-.42-.21-.84-.29-1.26l-.18-1.27c-.23-1.68-.37-3.38-.5-5.09-.76-11.5-.91-22.56-1.05-32.82v-.22l.22,0,18-2.05.24,0v.24c.08,1.87.16,3.68.24,5.45l-.42,0c1.83-6.2,3.52-11.85,5.07-16.84.39-1.24.77-2.45,1.14-3.61.2-.57.37-1.15.62-1.7a12.35,12.35,0,0,1,.89-1.5,14.6,14.6,0,0,1,4.57-4.17,13.12,13.12,0,0,1,4.7-1.66,14.82,14.82,0,0,1,2-.18c.61,0,1.17,0,1.67.09l1.3.18.93.24c.49.12.74.21.74.21s-.26,0-.76-.15l-.93-.2-1.3-.15c-.49-.07-1,0-1.65-.06a16.44,16.44,0,0,0-2,.2,13.11,13.11,0,0,0-4.6,1.69,14.39,14.39,0,0,0-4.46,4.13,11.74,11.74,0,0,0-.85,1.47c-.23.51-.4,1.09-.59,1.66-.36,1.16-.74,2.37-1.12,3.61-1.52,5-3.18,10.66-5,16.86l-.36,1.23-.06-1.28c-.09-1.77-.17-3.58-.26-5.45l.25.21-18,2.1.21-.24c.16,10.25.33,21.31,1.08,32.79.13,1.7.27,3.39.49,5.05l.18,1.24c.08.41.19.8.28,1.2a21.6,21.6,0,0,0,.87,2.32,24.08,24.08,0,0,0,5.48,8,16.44,16.44,0,0,0,3.84,2.72,14.72,14.72,0,0,0,2.14.9,9.26,9.26,0,0,0,2.24.34,18.19,18.19,0,0,0,8.65-2,10.23,10.23,0,0,0,3.35-2.63,35.27,35.27,0,0,0,2.26-3.58c1.38-2.43,2.58-4.88,3.67-7.27,2.15-4.81,3.91-9.39,5.41-13.61s2.73-8.09,3.75-11.5,1.9-6.35,2.58-8.76,1.2-4.29,1.53-5.57c.16-.62.28-1.11.37-1.46S364.62,181.06,364.62,181.06Z" style="fill: rgb(38, 50, 56); transform-origin: 340.2px 197.821px;" id="elf239kn7gaf9" class="animable"></path><path d="M322.38,223.44c-.74-15.1,8.38-23.9,11.92-36.64" style="fill: rgb(186, 104, 200); transform-origin: 328.319px 205.12px;" id="elf2sucbu3e1o" class="animable"></path><path d="M334.3,186.8a7.8,7.8,0,0,1-.35,1.49c-.13.48-.3,1.06-.54,1.72s-.47,1.43-.82,2.24c-.63,1.65-1.51,3.56-2.51,5.67s-2.16,4.38-3.28,6.82a45,45,0,0,0-4,13,38.81,38.81,0,0,0-.3,4.14,10,10,0,0,1-.08,1.53,7.93,7.93,0,0,1-.12-1.53,29.66,29.66,0,0,1,.14-4.19,42,42,0,0,1,3.92-13.2c1.13-2.45,2.29-4.73,3.33-6.81s1.93-4,2.6-5.6c.37-.8.63-1.55.89-2.2s.46-1.21.61-1.68A9,9,0,0,1,334.3,186.8Z" style="fill: rgb(38, 50, 56); transform-origin: 328.29px 205.105px;" id="el8b4b2t1qqay" class="animable"></path><path d="M345.5,138.4c.71,5.08-1.19,10.14-3.34,14.8s-4.62,9.32-5.18,14.42c-.1.84-.06,1.86.66,2.32s1.38.49,1.84-.28a19.81,19.81,0,0,0,1.11-3.14c1.54-4.53,6.44-9,11.14-9.12a21.21,21.21,0,0,1,6,.4Z" style="fill: rgb(38, 50, 56); transform-origin: 347.335px 154.333px;" id="el4i932176wk" class="animable"></path></g><g id="freepik--character-1--inject-2" class="animable" style="transform-origin: 162.36px 322.031px;"><path d="M92.18,457.34l-21.06-5.88s-8.44,22.84-12.66,23.1l-.05-44.13,8.52-.06,26.95,4.9Z" style="fill: rgb(69, 90, 100); transform-origin: 76.145px 452.465px;" id="elh8f25qhlkbc" class="animable"></path><path d="M73,437.81A1.79,1.79,0,0,0,71,436.56a1.73,1.73,0,0,0-1.25,2,1.9,1.9,0,0,0,2.18,1.31A1.8,1.8,0,0,0,73,437.64" style="fill: rgb(224, 224, 224); transform-origin: 71.4021px 438.221px;" id="elgocrl8fpr5d" class="animable"></path><path d="M57.49,430.4l3.43,0-.22,42.44s-.85,2-2.24,1.75Z" style="fill: rgb(224, 224, 224); transform-origin: 59.205px 452.506px;" id="elm14210r9ie" class="animable"></path><path d="M71.34,452.17c-.21,0-.31-1.08-1-2.14s-1.6-1.63-1.51-1.83,1.33.13,2.15,1.42S71.54,452.22,71.34,452.17Z" style="fill: rgb(38, 50, 56); transform-origin: 70.1836px 450.159px;" id="el8rufg1vdyma" class="animable"></path><path d="M69.43,456.8c-.21.05-.57-.88-1.49-1.61s-1.87-.94-1.86-1.16,1.22-.35,2.34.58S69.64,456.8,69.43,456.8Z" style="fill: rgb(38, 50, 56); transform-origin: 67.7992px 455.337px;" id="el8wqmyha1u7g" class="animable"></path><path d="M63.89,459.44c0-.2,1-.5,2.22.05s1.65,1.56,1.47,1.65-.81-.53-1.79-1S63.92,459.65,63.89,459.44Z" style="fill: rgb(38, 50, 56); transform-origin: 65.7546px 460.163px;" id="elsob747eegt" class="animable"></path><path d="M76.54,451.78c-.19-.09.1-1.08,0-2.3s-.47-2.17-.29-2.28,1,.8,1,2.24S76.71,451.88,76.54,451.78Z" style="fill: rgb(38, 50, 56); transform-origin: 76.7257px 449.489px;" id="elb8miecp57wc" class="animable"></path><path d="M125.43,369s.21,19.71,7.91,27.74c1.83,1.91,5.08,41.51,5.08,41.51l-63.09-8.29-1,26.87c20.58,4.28,64.49,17.16,71.8,17.56,10.1.56,25.29-.75,27.86-19.18,1.63-11.74,9.17-82.73,9.17-82.73Z" style="fill: rgb(38, 50, 56); transform-origin: 128.745px 421.743px;" id="elfg6sdnl8qdp" class="animable"></path><path d="M183.73,368.08c.15,0-1.08,11.08-2.73,24.69s-3.1,24.65-3.24,24.63,1.08-11.07,2.73-24.69S183.59,368.07,183.73,368.08Z" style="fill: rgb(69, 90, 100); transform-origin: 180.746px 392.74px;" id="elxndwh7lrbg" class="animable"></path><path d="M147,450.63a55.1,55.1,0,0,1-4.5-6.06,56.17,56.17,0,0,1-4.07-6.35,53.64,53.64,0,0,1,4.5,6.06A53.56,53.56,0,0,1,147,450.63Z" style="fill: rgb(69, 90, 100); transform-origin: 142.715px 444.425px;" id="elmemeaaaqrvg" class="animable"></path><path d="M225,438.87l-6.68,21.85s23.65,9.39,23.81,13.8L196,473.45l.16-8.9,5.8-28Z" style="fill: rgb(69, 90, 100); transform-origin: 219.065px 455.535px;" id="el7vm6mjkqmtr" class="animable"></path><path d="M204.12,458.39a1.87,1.87,0,0,0-1.35,2.12,1.8,1.8,0,0,0,2.08,1.35,2,2,0,0,0,1.42-2.25,1.87,1.87,0,0,0-2.32-1.17" style="fill: rgb(224, 224, 224); transform-origin: 204.52px 460.123px;" id="ellu0kl6x837" class="animable"></path><path d="M196,474.42l.06-3.59,44.33,1.31s2,.94,1.76,2.38Z" style="fill: rgb(224, 224, 224); transform-origin: 219.085px 472.675px;" id="elc3c04r2qlmd" class="animable"></path><path d="M219.08,460.5c0,.22-1.14.3-2.27,1s-1.73,1.63-1.94,1.53.16-1.38,1.54-2.2S219.13,460.29,219.08,460.5Z" style="fill: rgb(38, 50, 56); transform-origin: 216.948px 461.658px;" id="elwyzja4t6co" class="animable"></path><path d="M223.87,462.61c0,.22-.94.58-1.73,1.51s-1,1.94-1.25,1.93-.34-1.3.66-2.44S223.87,462.4,223.87,462.61Z" style="fill: rgb(38, 50, 56); transform-origin: 222.298px 464.283px;" id="elv7wsxg5rt7s" class="animable"></path><path d="M226.48,468.46c-.21,0-.5-1.09.11-2.31s1.67-1.68,1.76-1.49-.57.83-1.06,1.84S226.7,468.44,226.48,468.46Z" style="fill: rgb(38, 50, 56); transform-origin: 227.291px 466.539px;" id="elysl3oyem1b" class="animable"></path><path d="M218.8,455.06c-.1.2-1.13-.14-2.4-.08s-2.28.44-2.39.24.86-1,2.36-1S218.91,454.88,218.8,455.06Z" style="fill: rgb(38, 50, 56); transform-origin: 216.405px 454.749px;" id="elp7hktl459lg" class="animable"></path><path d="M180.72,348.16s25-1.87,46.22,1c5.85.81,13.16,1.41,16.69,3,7.72,3.53,8.65,11.34,8.35,15.71-.42,6-25.82,87.86-25.82,87.86l-28.78-2.29,11.87-50.8c2.08-8.95,5.8-19.54,5.8-19.54l-43.86,2.57s-8-23.84-6.08-30.71S180.72,348.16,180.72,348.16Z" style="fill: rgb(38, 50, 56); transform-origin: 208.42px 401.646px;" id="eljxxs6snjy4c" class="animable"></path><path d="M229.46,369.8a29.74,29.74,0,0,1-2.52,1.75,47.38,47.38,0,0,0-10.65,10.06A30,30,0,0,1,214.4,384a2.58,2.58,0,0,1,.37-.75c.26-.46.68-1.11,1.22-1.89a37.93,37.93,0,0,1,4.88-5.6,37.22,37.22,0,0,1,5.87-4.55c.81-.5,1.48-.88,2-1.12A2.39,2.39,0,0,1,229.46,369.8Z" style="fill: rgb(69, 90, 100); transform-origin: 221.93px 376.9px;" id="ellxxb6ligrap" class="animable"></path><g id="elqg9zpg4kiqa"><rect x="260.94" y="226.08" width="1.3" height="4.95" style="fill: rgb(69, 90, 100); transform-origin: 261.59px 228.555px; transform: rotate(-20.15deg);" class="animable"></rect></g><polygon points="260.48 227.4 258.28 226.08 258.93 224.37 260.73 223.66 262.38 224.61 261.68 226.99 260.48 227.4" style="fill: rgb(245, 245, 245); transform-origin: 260.33px 225.53px;" id="el4a761nkugch" class="animable"></polygon><path d="M260.48,227.4a5.2,5.2,0,0,1,1.15-.56l-.1.1c.14-.61.36-1.44.62-2.4l.11.28-1.66-.93h.23l-.32.13-1.49.58.14-.15c-.24.59-.46,1.15-.68,1.7l-.09-.26a13.42,13.42,0,0,1,2.09,1.5,10.51,10.51,0,0,1-2.31-1.13l-.16-.09.07-.17c.19-.56.4-1.13.61-1.73l0-.1.1,0,1.49-.59.32-.13.12,0,.1.07,1.64,1,.17.1-.06.18c-.29.94-.56,1.76-.78,2.35l0,.09-.07,0C260.92,227.37,260.47,227.46,260.48,227.4Z" style="fill: rgb(224, 224, 224); transform-origin: 260.32px 225.435px;" id="elmtksbmsn3u" class="animable"></path><path d="M239,232.14c.06-.3,3.89-8.67,4.77-9.2s12.68,0,12.68,0-.17,2.59-1.41,3.18-4.4,2.18-4.4,2.18a42.67,42.67,0,0,1-3.21,3.48l.59,5.13-5.48,2.18Z" style="fill: rgb(168, 107, 98); transform-origin: 247.725px 230.897px;" id="eluenmkgkrn7n" class="animable"></path><path d="M255.14,222.46s-5.44,1.5-4.38,6.95,2.27,6.51,3.57,6.51,12.9-4.46,12.9-4.46l-1-2.92-8.37,3.16Z" style="fill: rgb(186, 104, 200); transform-origin: 258.926px 229.19px;" id="eln8egke6m9e" class="animable"></path><path d="M253.31,221.23s-8,3.42-9.61,4.77-8.38,6.84-8.44,7.49.83,13.62.83,13.62l-2.65,3.6,3.83,5.31,14.09-17.4,5.07-4.48s-.12-1.59-1.41-1.89-5.84.71-6.55,1.65a23,23,0,0,1-2.71,2.6l-2.12-.89-.18-3.36s4.3-4.31,5-4.93,5.51-3.48,6.06-4.64S253.31,221.23,253.31,221.23Z" style="fill: rgb(228, 147, 132); transform-origin: 244.935px 238.625px;" id="elzdcu08cscu" class="animable"></path><path d="M239.3,250.4s2.35-6.54,4.78-9a22.9,22.9,0,0,1,6.68-4.08s5.79-5,6.68-6a3.62,3.62,0,0,1,4.3-.66c1.44.88-1.54,5.63-2.65,7s-3.75,4.3-3.75,4.3l4.08-2.1,3.32-3.75v-5.91s1.32-1.82,2.32,0,1.21,8.6,1.1,9.68-3.75,5.51-4.2,6.5-.88,3.31-1.21,3.53-13.58,6.41-13.58,6.41Z" style="fill: rgb(228, 147, 132); transform-origin: 252.743px 242.856px;" id="el4op9p2exqpn" class="animable"></path><path d="M239.3,250.4a3.62,3.62,0,0,1,.56.38l1.57,1.13,5.83,4.31-.15,0,6.77-3.24,4-1.9,2.13-1,.55-.26c.05,0,.09,0,.08,0s0-.06.05-.08a1.56,1.56,0,0,0,.11-.26c.14-.37.24-.77.36-1.17a8.82,8.82,0,0,1,.9-2.44c.48-.74,1-1.44,1.53-2.16s1.05-1.46,1.54-2.22a8.58,8.58,0,0,0,.67-1.17,2.86,2.86,0,0,0,.15-1.28,47.07,47.07,0,0,0-.4-5.73,10.89,10.89,0,0,0-.67-2.81c-.2-.41-.52-.77-.88-.74a1.65,1.65,0,0,0-1,.69l.05-.15v6l-.07.07-3.31,3.76,0,0,0,0-4.08,2.09-1.19.61.88-1,2.53-2.9,1.24-1.42a19.17,19.17,0,0,0,2.7-4.66,3,3,0,0,0,.22-1.58c-.09-.39-.72-.6-1.22-.69a3.53,3.53,0,0,0-2.91.86c-.76.8-1.58,1.5-2.35,2.2q-2.36,2.07-4.48,3.87l0,0h0a22.16,22.16,0,0,0-6.4,3.79,11.33,11.33,0,0,0-1.88,2.39c-.49.81-.9,1.58-1.25,2.27-.7,1.4-1.17,2.52-1.5,3.27-.15.36-.27.64-.36.87a1.82,1.82,0,0,1-.14.29,1.13,1.13,0,0,1,.09-.31l.31-.89c.29-.77.74-1.9,1.41-3.32a25.2,25.2,0,0,1,1.22-2.31,10.82,10.82,0,0,1,1.89-2.48,21.76,21.76,0,0,1,6.47-3.92l-.06,0,4.44-3.9c.77-.71,1.58-1.4,2.33-2.2a4,4,0,0,1,3.3-1,3.47,3.47,0,0,1,.88.28,1.23,1.23,0,0,1,.72.74,3.25,3.25,0,0,1-.23,1.87,16.61,16.61,0,0,1-1.67,3.28c-.34.53-.69,1-1.09,1.55l-1.24,1.43-2.54,2.91-.31-.4,4.09-2.1-.08.06,3.31-3.75-.06.17v-6l0-.06a2.09,2.09,0,0,1,1.44-.91,1.2,1.2,0,0,1,.87.35,2.35,2.35,0,0,1,.48.68,10.9,10.9,0,0,1,.72,3,46.19,46.19,0,0,1,.39,5.8v.72a1.84,1.84,0,0,1-.18.76,10.41,10.41,0,0,1-.71,1.23c-.51.78-1,1.51-1.57,2.23s-1,1.43-1.52,2.14a8.1,8.1,0,0,0-.86,2.31c-.12.41-.23.8-.38,1.21a1.94,1.94,0,0,1-.13.3.8.8,0,0,1-.12.18.37.37,0,0,1-.16.11l-.55.26-2.15,1-4,1.87-6.83,3.18-.08,0-.07-.05L241.29,252l-1.5-1.17A5.68,5.68,0,0,1,239.3,250.4Z" style="fill: rgb(168, 107, 98); transform-origin: 252.93px 242.795px;" id="el2yve6hlgb88" class="animable"></path><path d="M262.23,224.55c0,.13-.8.58-1.91,1a4.7,4.7,0,0,1-2.09.52c-.05-.14.8-.59,1.91-1S262.18,224.41,262.23,224.55Z" style="fill: rgb(224, 224, 224); transform-origin: 260.229px 225.29px;" id="elgsu7rh9ta9o" class="animable"></path><path d="M260.48,225.16c-.06.13-.45.07-.86-.14s-.69-.48-.62-.61.45-.06.86.14S260.54,225,260.48,225.16Z" style="fill: rgb(224, 224, 224); transform-origin: 259.739px 224.786px;" id="eli01hu5j16l" class="animable"></path><path d="M260.48,225.16c-.14,0-.21-.37-.15-.78s.22-.73.37-.7.2.36.15.77S260.62,225.18,260.48,225.16Z" style="fill: rgb(224, 224, 224); transform-origin: 260.589px 224.419px;" id="elz9nvpoydb1" class="animable"></path><path d="M259.86,222.84c-.1.1-.77-.45-1.48-1.22s-1.21-1.48-1.1-1.57.77.45,1.48,1.22S260,222.73,259.86,222.84Z" style="fill: rgb(38, 50, 56); transform-origin: 258.574px 221.446px;" id="el00s4mz1tq0ff" class="animable"></path><path d="M261.34,222.77a7.88,7.88,0,0,1-.29-3.08,8.15,8.15,0,0,1,.38-3.08,10.81,10.81,0,0,1,.14,3.08A11.26,11.26,0,0,1,261.34,222.77Z" style="fill: rgb(38, 50, 56); transform-origin: 261.315px 219.69px;" id="el5vppflssnql" class="animable"></path><path d="M264.92,221.49c.08.12-.41.59-1.09,1s-1.3.74-1.38.62.41-.59,1.09-1S264.84,221.37,264.92,221.49Z" style="fill: rgb(38, 50, 56); transform-origin: 263.685px 222.3px;" id="elgxkgvy64nl" class="animable"></path><path d="M193.09,196.05c-1.79-2.1-4-4.11-4.52-6.82-.5-2.49.5-5.28-.71-7.51-1.48-2.75-5.48-3.15-7.29-5.7-.89-1.23-1.14-2.82-2-4.06-1.48-2.11-4.39-2.7-7-2.46s-5,1.14-7.62,1.28c-3.53.21-7.16-1-10.56,0-3.76,1.08-6.08,4.36-8.55,7.53L141.65,182a13.83,13.83,0,0,1-2.14,1.69,26.5,26.5,0,0,0-4,2.51,6.26,6.26,0,0,0,.3,9,6.68,6.68,0,0,0-4.58,6.49,19.14,19.14,0,0,0,1.16,4.55,6.71,6.71,0,0,1,.07,4.61c-.65,1.43-2.5,2.39-3.86,1.61a7,7,0,0,0,3.78,4.73,4.28,4.28,0,0,1-2.84,1.22c2.78,6.75,10.53,10.38,17.83,10.5s14.33-2.57,21.14-5.22l19.73-4.9c1.74-.37,2.48-2.47,2.47-4.24s-.43-3.62.22-5.27c.89-2.26,3.55-3.43,4.48-5.68C196.43,201,194.89,198.15,193.09,196.05Z" style="fill: rgb(38, 50, 56); transform-origin: 162.168px 199.182px;" id="elh3v4ghmp6i8" class="animable"></path><path d="M146.35,213.48A80.91,80.91,0,0,1,143,199.89a28.22,28.22,0,0,1,1.32-13.8c.25-.66,2.42-5.07,3.12-5,.51.05-.85,4.19-.6,4.63a24,24,0,0,1,2.49,14,63.39,63.39,0,0,1-3,13.71" style="fill: rgb(38, 50, 56); transform-origin: 146.094px 197.285px;" id="elmpvofyvegod" class="animable"></path><path d="M146.16,195.66c-.2-11.7,6.44-21.58,18.15-21.46l1.08.07a20.94,20.94,0,0,1,19.5,20.63c.12,10.15.12,21.37-.32,26.78-.91,11.2-12.24,12.17-12.24,12.17s.13,18.44.13,18.44l-27.25-17.45Z" style="fill: rgb(228, 147, 132); transform-origin: 165.084px 213.244px;" id="el4q1zkiaaxt9" class="animable"></path><path d="M172.33,233.85a27.14,27.14,0,0,1-14.3-5.32,14.5,14.5,0,0,0,14.32,9.61Z" style="fill: rgb(168, 107, 98); transform-origin: 165.19px 233.343px;" id="elo4z4n2gdgmp" class="animable"></path><path d="M181.2,204a1.6,1.6,0,0,1-1.66,1.51,1.54,1.54,0,0,1-1.55-1.55,1.6,1.6,0,0,1,1.66-1.51A1.53,1.53,0,0,1,181.2,204Z" style="fill: rgb(38, 50, 56); transform-origin: 179.595px 203.98px;" id="elkpcvbvezbhp" class="animable"></path><path d="M182.24,199.13c-.2.22-1.42-.67-3.15-.64s-3,.91-3.17.7.11-.48.65-.88a4.4,4.4,0,0,1,2.54-.82,4.23,4.23,0,0,1,2.51.77C182.15,198.66,182.34,199,182.24,199.13Z" style="fill: rgb(38, 50, 56); transform-origin: 179.068px 198.356px;" id="eld4nbk8n237q" class="animable"></path><path d="M165.67,203.74a1.61,1.61,0,0,1-1.65,1.51,1.53,1.53,0,0,1-1.55-1.56,1.61,1.61,0,0,1,1.65-1.51A1.54,1.54,0,0,1,165.67,203.74Z" style="fill: rgb(38, 50, 56); transform-origin: 164.07px 203.715px;" id="elcy2is5spbsn" class="animable"></path><path d="M165.62,198.73c-.2.21-1.41-.7-3.13-.7s-3,.84-3.19.63.12-.47.67-.87a4.41,4.41,0,0,1,2.55-.76,4.21,4.21,0,0,1,2.5.82C165.54,198.26,165.72,198.64,165.62,198.73Z" style="fill: rgb(38, 50, 56); transform-origin: 162.445px 197.895px;" id="eli8d3bqocrb" class="animable"></path><path d="M170.52,212.59a11.25,11.25,0,0,1,2.83-.31c.45,0,.87-.08,1-.37a2.21,2.21,0,0,0-.2-1.33c-.34-1.09-.7-2.23-1.07-3.43-1.48-4.9-2.52-8.91-2.32-9s1.56,3.87,3,8.76q.54,1.8,1,3.45a2.56,2.56,0,0,1,.11,1.74,1.12,1.12,0,0,1-.77.6,3.44,3.44,0,0,1-.75.05A11.4,11.4,0,0,1,170.52,212.59Z" style="fill: rgb(38, 50, 56); transform-origin: 172.746px 205.463px;" id="elte9nidnuu5g" class="animable"></path><path d="M165.37,213.43c.28,0,.16,1.88,1.66,3.31s3.52,1.37,3.51,1.63-.46.34-1.31.3a4.67,4.67,0,0,1-2.93-1.26,4.05,4.05,0,0,1-1.28-2.76C165,213.86,165.24,213.41,165.37,213.43Z" style="fill: rgb(38, 50, 56); transform-origin: 167.779px 216.055px;" id="ellcfcl40o2b" class="animable"></path><path d="M165.64,191.93c-.21.46-1.91.12-3.95.22s-3.71.55-3.95.11c-.1-.21.21-.63.9-1a6.87,6.87,0,0,1,6-.25C165.38,191.32,165.73,191.72,165.64,191.93Z" style="fill: rgb(38, 50, 56); transform-origin: 161.688px 191.444px;" id="el3juh5gfz17e" class="animable"></path><path d="M181.85,193.62c-.33.37-1.49-.12-2.91-.24s-2.65.09-2.9-.34c-.11-.21.1-.59.66-.92a4,4,0,0,1,2.41-.48,4,4,0,0,1,2.28,1C181.86,193,182,193.44,181.85,193.62Z" style="fill: rgb(38, 50, 56); transform-origin: 178.96px 192.685px;" id="elg5dzfg7814q" class="animable"></path><path d="M146.5,204c-.18-.09-7.54-2.8-7.82,4.88s7.48,6.38,7.5,6.16S146.5,204,146.5,204Z" style="fill: rgb(228, 147, 132); transform-origin: 142.586px 209.361px;" id="elq9qss9chogi" class="animable"></path><path d="M144,212.06s-.14.09-.37.18a1.32,1.32,0,0,1-1,0,3.3,3.3,0,0,1-1.42-3,4.29,4.29,0,0,1,.44-1.9,1.57,1.57,0,0,1,1-1,.69.69,0,0,1,.78.4c.1.21,0,.37.08.38s.17-.12.12-.44a.86.86,0,0,0-.28-.49,1,1,0,0,0-.74-.23,1.91,1.91,0,0,0-1.44,1.14,4.57,4.57,0,0,0-.54,2.13c0,1.55.73,3,1.83,3.38a1.42,1.42,0,0,0,1.23-.15C143.93,212.25,144,212.08,144,212.06Z" style="fill: rgb(168, 107, 98); transform-origin: 142.315px 209.321px;" id="elqrrxo5wi93o" class="animable"></path><path d="M180.27,182c1.26-.65-2.35-4.78-5.37-6.25-4.56-2.23-11.58-3.71-15.87-2.62-5.16,1.31-9.49,3.74-12.2,8.33A30.28,30.28,0,0,0,143,196.83a9.19,9.19,0,0,0,1,4.73c1,1.73,3.06,2.85,2.9,5.19a3.29,3.29,0,0,0,.73,2.37c1.37,1.53,3.13.18,4-1.21,1.77-3,2.06-6.55,2.3-10a22.17,22.17,0,0,0-.28-7.32c-.34-1.29-.91-2.52-1.18-3.82A4.6,4.6,0,0,1,153,183a5.54,5.54,0,0,1,.64-.62,8,8,0,0,1,8-1.29c4.28,1.65,11.6,4.14,13.57,2.73,2.84-2,3.54-3.39,3.54-3.39Z" style="fill: rgb(38, 50, 56); transform-origin: 161.756px 191.28px;" id="elhy89iap8n8e" class="animable"></path><path d="M159.46,172.13a16.9,16.9,0,0,1,13,1.08,8.78,8.78,0,0,1,4.49,5.23c.58,2.29-.47,5.06-2.69,5.89l-.15.09c-3.31,1-5.42.52-8.66-.71-2.72-1-5.12-2.79-7.85-3.8a15.64,15.64,0,0,0-9.13-.53A25.54,25.54,0,0,1,159.46,172.13Z" style="fill: rgb(38, 50, 56); transform-origin: 162.789px 178.133px;" id="elc03p4s9va2k" class="animable"></path><polygon points="194.17 269.24 215.85 266.32 234.67 246.35 245.99 259.07 220.08 285.26 196.9 282.46 194.17 269.24" style="fill: rgb(69, 90, 100); transform-origin: 220.08px 265.805px;" id="elioirkv24qcd" class="animable"></polygon><path d="M144,230.93l-2.06,6.44s-15.66,21.09-14,43.29l7.5,43.91-10.15,35.35-.81,22.51S195,383.67,199.55,381c0,0-4-26-4.87-38.32-.89-12.12-3.25-53.3-3.25-53.3l-15.78-39.54-2.23-6.78Z" style="fill: rgb(69, 90, 100); transform-origin: 162.015px 306.824px;" id="el0p7lth6olpj" class="animable"></path><path d="M154.25,241.39s20.44,8.16,22.74,9.15S194.68,270,194.68,270l20.38,5.95c-.38,0,22.35-27.63,22.35-27.63a13.9,13.9,0,0,1,12,7.75c3.94,7.89,2.1,10.38,2.1,10.38L226.64,299a11.23,11.23,0,0,1-11.23,4l-63.84-17.73s-5.21-22.18-3.56-30.4A31.61,31.61,0,0,1,154.25,241.39Z" style="fill: rgb(69, 90, 100); transform-origin: 199.813px 272.327px;" id="elnhxsyoyosrt" class="animable"></path><path d="M157.76,347.07a6.47,6.47,0,0,1,.69.05l1.88.19,6.91.72c5.86.62,14,1.49,23.14,2.54l-.28.3c-.35-2-.72-4.09-1.09-6.22-.16-.88-.31-1.76-.46-2.61l.22.21L162,338.77l.17-.09-3.2,6.13c-.37.69-.66,1.25-.89,1.67a5.14,5.14,0,0,1-.33.59,5.59,5.59,0,0,1,.25-.55l.79-1.66c.74-1.53,1.78-3.67,3.08-6.33l.05-.11h.12l26.79,3.31.19,0,0,.19c.15.85.3,1.73.46,2.61.37,2.13.74,4.22,1.09,6.22l.06.34-.34,0C181,350,172.82,349,167,348.27l-6.82-.86-1.82-.24A4.56,4.56,0,0,1,157.76,347.07Z" style="fill: rgb(38, 50, 56); transform-origin: 174.19px 344.755px;" id="el52oncapobzi" class="animable"></path><path d="M152.86,244.54s.31,0,.91.12l2.66.43c2.32.41,5.75,1,10.08,2.08,2.16.53,4.56,1.16,7.13,2,.63.22,1.29.42,2,.67l1,.38c.17.07.34.12.5.2l.49.31a34.86,34.86,0,0,1,3.3,3.16c4.3,4.57,8.93,10,14,15.95l-.1-.07,20,5.88-.24.08,22.71-27.6.08-.1h.11a14.37,14.37,0,0,1,8.71,3.33,14.14,14.14,0,0,1,3.08,3.75,27.36,27.36,0,0,1,2,4.44,17.57,17.57,0,0,1,.86,3.2,7.32,7.32,0,0,1-.11,3.35,2.39,2.39,0,0,1-.45.76l-.49.64-1,1.28q-1,1.29-1.95,2.55-3.89,5.09-7.65,10c-2.5,3.28-5,6.5-7.38,9.65l-3.58,4.68-1.76,2.3a17.7,17.7,0,0,1-1.85,2.22,11.46,11.46,0,0,1-10.43,3.05l-10.07-2.8-18.07-5.06L161.14,288,154,286l-1.84-.54c-.41-.12-.62-.2-.62-.2s.22,0,.63.15l1.86.49,7.13,1.93,26.2,7.19,18.08,5,10.08,2.77a11,11,0,0,0,10-2.94,18.42,18.42,0,0,0,1.81-2.17l1.75-2.31,3.58-4.68L240,281l7.64-10,1.95-2.55,1-1.28.49-.64a1.86,1.86,0,0,0,.37-.63,7,7,0,0,0,.09-3.09,18.12,18.12,0,0,0-.84-3.11c-1.11-3-2.53-6-4.94-8a13.83,13.83,0,0,0-8.37-3.21l.19-.1L214.86,276l-.1.12-.15,0-20-5.93-.06,0,0,0c-5-6-9.62-11.4-13.88-16A35,35,0,0,0,177.4,251l-.43-.28a4.19,4.19,0,0,0-.49-.2l-1-.39c-.65-.25-1.31-.45-1.94-.68-2.56-.85-4.94-1.49-7.1-2-4.31-1.08-7.73-1.74-10-2.19l-2.65-.49C153.16,244.61,152.86,244.54,152.86,244.54Z" style="fill: rgb(38, 50, 56); transform-origin: 201.912px 274.01px;" id="el9o27q6u320r" class="animable"></path><path d="M215.73,283.93c-.16.05-.7-1.73-.95-4a13.44,13.44,0,0,1-.1-4.08,21.54,21.54,0,0,1,.62,4A36.34,36.34,0,0,1,215.73,283.93Z" style="fill: rgb(38, 50, 56); transform-origin: 215.15px 279.891px;" id="elspxqb5p40d" class="animable"></path><g id="elzyds1od41w"><g style="opacity: 0.3; transform-origin: 174.055px 350.335px;" class="animable"><polygon points="159.53 347.28 157.76 350.27 190.35 353.39 189.38 350.83 159.53 347.28" id="el1rig3504w3t" class="animable" style="transform-origin: 174.055px 350.335px;"></polygon></g></g><g id="el17d56nbk3xi"><g style="opacity: 0.3; transform-origin: 173.28px 292.37px;" class="animable"><path d="M191.83,296.36,154.6,286.11s16.71,11.54,26.45,11.93,10.91.59,10.91.59Z" id="el30022yyrx4a" class="animable" style="transform-origin: 173.28px 292.37px;"></path></g></g><g id="elq0r87mv0vtc"><g style="opacity: 0.3; transform-origin: 215.775px 261.765px;" class="animable"><polygon points="194.68 269.97 213.84 273.23 235.82 247.65 236.87 248.83 214.68 275.88 194.68 269.97" id="el9qp6ly1a3um" class="animable" style="transform-origin: 215.775px 261.765px;"></polygon></g></g><path d="M174.72,248.87c0,.14-7.43-2.33-16.5-5.5s-16.37-5.87-16.33-6,7.44,2.33,16.5,5.5S174.77,248.74,174.72,248.87Z" style="fill: rgb(38, 50, 56); transform-origin: 158.305px 243.12px;" id="elb9d9vg8n7e" class="animable"></path><path d="M143.9,274.85a3.91,3.91,0,0,1-.37-1.05,24.54,24.54,0,0,1-.69-2.95,34.64,34.64,0,0,1,2.31-19.67,23.56,23.56,0,0,1,1.35-2.72,4.83,4.83,0,0,1,.6-.94c.08,0-.68,1.43-1.61,3.8a38.18,38.18,0,0,0-2.28,19.47C143.56,273.3,144,274.83,143.9,274.85Z" style="fill: rgb(38, 50, 56); transform-origin: 144.714px 261.185px;" id="ele8zjqhmksuu" class="animable"></path><path d="M143.66,328.65a19,19,0,0,1-4.37-.94,19,19,0,0,1-4.23-1.43,19.42,19.42,0,0,1,4.37.93A19.78,19.78,0,0,1,143.66,328.65Z" style="fill: rgb(38, 50, 56); transform-origin: 139.36px 327.465px;" id="elcboq866uqa8" class="animable"></path><path d="M153.91,324.1a85.42,85.42,0,0,1-9.29,1,80.3,80.3,0,0,1-9.32.49,84.64,84.64,0,0,1,9.28-1A80.43,80.43,0,0,1,153.91,324.1Z" style="fill: rgb(38, 50, 56); transform-origin: 144.605px 324.845px;" id="el3kza61iygvg" class="animable"></path></g><g id="freepik--speech-bubble-2--inject-2" class="animable" style="transform-origin: 409.77px 108.025px;"><polygon points="411.94 91.38 400.4 79.42 397.53 98.33 382.06 97.81 391.74 110.52 382 123.3 398.13 120.12 400.46 136.35 413.5 126.47 429.94 135.08 426.34 118.47 445 115.53 430.49 106.97 438.94 92.38 424.45 98.05 422.68 80.06 411.94 91.38" style="fill: rgb(255, 255, 255); transform-origin: 413.5px 107.885px;" id="elnqecvmx2b5h" class="animable"></polygon><path d="M411.94,91.38s.24-.28.71-.78l2.06-2.21c1.82-1.94,4.47-4.78,7.89-8.41l.18-.2,0,.27c.5,4.88,1.11,11,1.82,18l-.24-.14,14.49-5.7.54-.21-.29.5-8.44,14.6-.08-.3,14.52,8.55.57.33-.66.11-18.65,3,.21-.3c1.15,5.29,2.36,10.89,3.6,16.6l.12.54-.49-.25-14.24-7.46-2.2-1.15.28,0-13,9.87-.35.27-.06-.44c-.8-5.53-1.57-10.95-2.33-16.22l.3.21-16.13,3.17-.62.12.38-.51,9.75-12.77v.28L381.9,97.93l-.26-.34.43,0,15.47.55-.18.15c1.15-7.44,2.12-13.77,2.92-18.9l0-.25.18.18c3.71,3.88,6.56,6.88,8.51,8.91l2.2,2.32c.49.52.74.81.74.81l-.75-.74L409,88.38l-8.66-8.87.21-.07c-.76,5.14-1.71,11.47-2.82,18.92l0,.15h-.16L382.06,98l.16-.32q4.57,6,9.7,12.69l.1.14-.1.14-9.73,12.79-.23-.39,16.12-3.19.26-.05,0,.26q1.14,7.92,2.34,16.23l-.41-.17,13-9.88.13-.1.15.08,2.2,1.15,14.24,7.46-.37.28c-1.24-5.71-2.45-11.31-3.59-16.61l-.06-.26.26,0L445,115.29l-.09.45-14.5-8.58-.19-.11.11-.19,8.48-14.58.25.29-14.51,5.64-.21.08,0-.22c-.67-7-1.25-13.11-1.72-18l.21.07-8,8.37-2.09,2.16C412.18,91.15,411.94,91.38,411.94,91.38Z" style="fill: rgb(38, 50, 56); transform-origin: 413.56px 108.025px;" id="el8zxg7h2d7vw" class="animable"></path><path d="M381,111.33a3.45,3.45,0,1,1-3.45-3.44A3.44,3.44,0,0,1,381,111.33Z" style="fill: rgb(255, 255, 255); transform-origin: 377.55px 111.34px;" id="eluz4qofim689" class="animable"></path><path d="M381,111.33c-.05,0-.05-.3-.21-.81a3.37,3.37,0,0,0-1.26-1.78,3.3,3.3,0,0,0-3.07-.42,3.23,3.23,0,1,0,3.07,5.61,3.41,3.41,0,0,0,1.26-1.78c.16-.51.16-.82.21-.82a1.6,1.6,0,0,1,0,.87,3.45,3.45,0,0,1-1.24,2,3.62,3.62,0,0,1-3.45.58,3.68,3.68,0,0,1,0-6.93,3.6,3.6,0,0,1,3.45.58,3.42,3.42,0,0,1,1.24,2A1.57,1.57,0,0,1,381,111.33Z" style="fill: rgb(38, 50, 56); transform-origin: 377.468px 111.314px;" id="eludlbkxokge" class="animable"></path><path d="M413.65,98.8l-.7,11a1.79,1.79,0,0,1-1.68,1.68h0a1.79,1.79,0,0,1-1.88-1.59l-1.23-11.08a1.41,1.41,0,0,1,1.42-1.56l2.69,0A1.4,1.4,0,0,1,413.65,98.8Z" style="fill: rgb(38, 50, 56); transform-origin: 410.905px 104.366px;" id="elva0i3hr9l99" class="animable"></path><path d="M408.35,117.7a2.69,2.69,0,1,0,1.71-3.4A2.69,2.69,0,0,0,408.35,117.7Z" style="fill: rgb(38, 50, 56); transform-origin: 410.904px 116.854px;" id="ela9gpbfbk6gp" class="animable"></path></g><g id="freepik--speech-bubble-1--inject-2" class="animable" style="transform-origin: 82.1031px 186.789px;"><path d="M111.08,203.09l-3.28-7.23a28,28,0,1,0-4.91,8.75v0Z" style="fill: rgb(255, 255, 255); transform-origin: 82.2009px 186.755px;" id="elgnhogvqqxf" class="animable"></path><path d="M111.08,203.09l-.51.11-1.55.32-6.11,1.21a.11.11,0,0,1-.13-.08.09.09,0,0,1,0-.07h0l.19.11a27.8,27.8,0,0,1-15.07,9.48c-.72.19-1.48.28-2.25.43-.38.06-.77.15-1.16.18l-1.19.09a28,28,0,0,1-20-6.42,28.09,28.09,0,0,1-6.67-35.22l.87-1.52,1-1.43a29.53,29.53,0,0,1,2.17-2.68,28,28,0,0,1,5.21-4.37,28.16,28.16,0,0,1,43.23,19.13,27.79,27.79,0,0,1-1.22,13.54v-.07c1,2.35,1.83,4.17,2.39,5.42.25.6.45,1.06.6,1.39l.19.46-.24-.48-.66-1.39c-.57-1.23-1.4-3-2.48-5.32a.11.11,0,0,1,0-.08,27.76,27.76,0,0,0-41.53-32.17,28.1,28.1,0,0,0-5.11,4.29,30.19,30.19,0,0,0-2.13,2.63L58,172l-.85,1.5a27.71,27.71,0,0,0-.79,25.19,27.67,27.67,0,0,0,27,15.81l1.18-.08c.39,0,.76-.12,1.14-.18.76-.14,1.51-.22,2.23-.4a27.43,27.43,0,0,0,4.08-1.3,28.09,28.09,0,0,0,10.9-8,.11.11,0,0,1,.15,0,.11.11,0,0,1,0,.13h0l-.11-.15,6.06-1.07,1.59-.28Z" style="fill: rgb(38, 50, 56); transform-origin: 82.1031px 186.789px;" id="elz1uygajjuj" class="animable"></path><path d="M74.4,182.35h3.82a3.25,3.25,0,0,1,3.34-3.27,3.09,3.09,0,0,1,3,2,3.42,3.42,0,0,1-.27,3.09c-.65,1.07-2.07,2-4.64,1.59v8.61h3.77v-5a7.37,7.37,0,0,0,5.3-7.2c0-5.59-5-6.89-7.15-6.89C79.92,175.21,74.33,175.61,74.4,182.35Z" style="fill: rgb(38, 50, 56); transform-origin: 81.5602px 184.822px;" id="elg28v1bdooo9" class="animable"></path><rect x="79.63" y="196.12" width="3.83" height="3.58" style="fill: rgb(38, 50, 56); transform-origin: 81.545px 197.91px;" id="el0poouuo1m1i" class="animable"></rect></g><defs>     <filter id="active" height="200%">         <feMorphology in="SourceAlpha" result="DILATED" operator="dilate" radius="2"></feMorphology>                <feFlood flood-color="#32DFEC" flood-opacity="1" result="PINK"></feFlood>        <feComposite in="PINK" in2="DILATED" operator="in" result="OUTLINE"></feComposite>        <feMerge>            <feMergeNode in="OUTLINE"></feMergeNode>            <feMergeNode in="SourceGraphic"></feMergeNode>        </feMerge>    </filter>    <filter id="hover" height="200%">        <feMorphology in="SourceAlpha" result="DILATED" operator="dilate" radius="2"></feMorphology>                <feFlood flood-color="#ff0000" flood-opacity="0.5" result="PINK"></feFlood>        <feComposite in="PINK" in2="DILATED" operator="in" result="OUTLINE"></feComposite>        <feMerge>            <feMergeNode in="OUTLINE"></feMergeNode>            <feMergeNode in="SourceGraphic"></feMergeNode>        </feMerge>            <feColorMatrix type="matrix" values="0   0   0   0   0                0   1   0   0   0                0   0   0   0   0                0   0   0   1   0 "></feColorMatrix>    </filter></defs><defs><clipPath id="freepik--clip-path--inject-2"><path d="M230.47,435.33h0a10.58,10.58,0,0,0-9.18,4.93,10.41,10.41,0,0,0,3.05,14.41,10,10,0,0,0,5.21,1.57h0l51.52.62,1.9-20.43Z" style="fill:none"></path></clipPath></defs></svg>